<?xml version="1.0" encoding="utf-8"?>
<svg xmlns="http://www.w3.org/2000/svg" xmlns:xlink="http://www.w3.org/1999/xlink">
    <symbol viewBox="-10 -10 60 47" id="cloud" xmlns="http://www.w3.org/2000/svg">
        <defs>
            <path id="aa"
                  d="M369.93 715.172h-20.793c-4.779 0-8.667-3.888-8.667-8.667 0-4.656 3.688-8.465 8.296-8.661.513-4.728 4.527-8.418 9.388-8.418 4.02 0 7.553 2.602 8.865 6.29a9.98 9.98 0 0 1 2.91-.436c5.483 0 9.945 4.462 9.945 9.946 0 5.483-4.462 9.946-9.945 9.946zm-20.793-14.33a5.67 5.67 0 0 0-5.663 5.663 5.67 5.67 0 0 0 5.663 5.663h20.792a6.949 6.949 0 0 0 6.941-6.942c0-3.826-3.114-6.943-6.94-6.943a6.874 6.874 0 0 0-3.244.807l-1.894 1.004-.298-2.121c-.443-3.16-3.169-5.543-6.34-5.543a6.445 6.445 0 0 0-6.438 6.437c.033.256.047.368.055.482l.134 1.884-1.867-.297c-.295-.044-.592-.094-.9-.094z"/>
        </defs>
        <use  xlink:href="#aa" transform="translate(-340 -689)"/>
    </symbol>
    <symbol viewBox="-10 -10 53 58" id="humidity" xmlns="http://www.w3.org/2000/svg">
        <defs>
            <path id="ba"
                  d="M742.803 701.977c-.346-8.768-7.542-15.774-16.395-15.774-8.851 0-16.05 7.006-16.395 15.774z"/>
            <path id="bb"
                  d="M729.79 721.11a4.888 4.888 0 0 1-4.884-4.883V684.99a1.501 1.501 0 1 1 3.005 0v31.237a1.88 1.88 0 0 0 1.878 1.878 1.882 1.882 0 0 0 1.88-1.878 1.503 1.503 0 1 1 3.004 0 4.889 4.889 0 0 1-4.884 4.882z"/>
        </defs>
        <use  xlink:href="#ba" transform="translate(-710 -683)"/>
        <use  xlink:href="#bb" transform="translate(-710 -683)"/>
    </symbol>
    <symbol viewBox="-10 -10 71 65" id="partiallyСloudy" xmlns="http://www.w3.org/2000/svg">
        <defs>
            <path id="ca"
                  d="M440.987 689.236c-4.409 0-8.063 3.2-8.786 7.402.35.596.636 1.232.854 1.893a10.417 10.417 0 0 1 2.328-.28c2.735 0 4.87.928 6.406 2.378 1.802 1.294 2.974 3.21 3.506 5.318 2.745-1.522 4.617-4.423 4.617-7.785a8.925 8.925 0 0 0-8.925-8.926z"/>
            <path id="cb" d="M442.162 686.024a1.175 1.175 0 1 1-2.351 0v-4.622a1.177 1.177 0 0 1 2.351 0z"/>
            <path id="cc" d="M433.235 688.749a1.176 1.176 0 0 1-1.662 1.662l-3.27-3.27a1.176 1.176 0 0 1 1.662-1.661z"/>
            <path id="cd"
                  d="M448.736 707.577a1.173 1.173 0 0 1 .002-1.66 1.174 1.174 0 0 1 1.662-.003l3.27 3.271c.46.457.46 1.2 0 1.661a1.177 1.177 0 0 1-1.663.002z"/>
            <path id="ce"
                  d="M453.123 699.34a1.175 1.175 0 0 1-1.173-1.176c0-.65.526-1.176 1.174-1.176h4.623c.651 0 1.176.524 1.176 1.176 0 .649-.526 1.177-1.174 1.176z"/>
            <path id="cf"
                  d="M450.401 690.412a1.175 1.175 0 1 1-1.663-1.663l3.268-3.269a1.176 1.176 0 1 1 1.666 1.661z"/>
            <path id="cg"
                  d="M437.375 716.41h-20.791c-4.778 0-8.667-3.889-8.667-8.669 0-4.654 3.688-8.465 8.297-8.659.512-4.728 4.526-8.419 9.387-8.419 4.02 0 7.553 2.602 8.865 6.291a9.917 9.917 0 0 1 2.909-.437c5.484 0 9.946 4.461 9.946 9.947 0 5.483-4.462 9.945-9.946 9.945zm-20.791-14.33a5.67 5.67 0 0 0-5.663 5.661 5.67 5.67 0 0 0 5.663 5.663h20.791c3.828 0 6.942-3.113 6.942-6.94 0-3.827-3.114-6.943-6.942-6.943a6.85 6.85 0 0 0-3.242.807l-1.894 1.004-.298-2.123c-.443-3.158-3.169-5.54-6.34-5.54a6.444 6.444 0 0 0-6.438 6.436c.033.256.047.366.056.48l.133 1.884-1.867-.295c-.295-.045-.592-.095-.901-.095z"/>
            <path id="ch"
                  d="M434.209 724.026a1.178 1.178 0 0 1-1.664-1.664l3.269-3.269a1.176 1.176 0 1 1 1.665 1.662z"/>
            <path id="ci"
                  d="M425.383 724.026a1.175 1.175 0 1 1-1.663-1.664l3.268-3.269a1.177 1.177 0 0 1 1.666 1.662z"/>
            <path id="cj"
                  d="M416.557 724.026a1.175 1.175 0 1 1-1.663-1.664l3.269-3.269a1.176 1.176 0 1 1 1.665 1.662z"/>
        </defs>
        <use xlink:href="#ca" transform="translate(-408 -680)"/>
        <use xlink:href="#cb" transform="translate(-408 -680)"/>
        <use xlink:href="#cc" transform="translate(-408 -680)"/>
        <use xlink:href="#cd" transform="translate(-408 -680)"/>
        <use xlink:href="#ce" transform="translate(-408 -680)"/>
        <use xlink:href="#cf" transform="translate(-408 -680)"/>
        <use xlink:href="#cg" transform="translate(-408 -680)"/>
        <use xlink:href="#ch" transform="translate(-408 -680)"/>
        <use xlink:href="#ci" transform="translate(-408 -680)"/>
        <use xlink:href="#cj" transform="translate(-408 -680)"/>
    </symbol>
    <symbol viewBox="-10 -10 60 61" id="rain" xmlns="http://www.w3.org/2000/svg">
        <defs>
            <path id="da"
                  d="M76.94 707.729H56.15c-4.78 0-8.667-3.89-8.667-8.67 0-4.654 3.688-8.464 8.296-8.66.513-4.726 4.527-8.417 9.388-8.417 4.02 0 7.552 2.6 8.864 6.29a9.936 9.936 0 0 1 2.91-.437c5.484 0 9.946 4.462 9.946 9.947 0 5.486-4.462 9.947-9.945 9.947zm-20.79-14.333a5.67 5.67 0 0 0-5.663 5.663 5.67 5.67 0 0 0 5.663 5.664h20.79c3.827 0 6.94-3.114 6.94-6.942 0-3.827-3.113-6.942-6.94-6.942a6.85 6.85 0 0 0-3.243.807l-1.893 1.004-.3-2.122c-.442-3.16-3.168-5.542-6.34-5.542a6.444 6.444 0 0 0-6.437 6.437c.033.255.047.367.055.48l.135 1.89-1.873-.3c-.294-.048-.59-.097-.896-.097z"/>
            <path id="db"
                  d="M75.207 715.346a1.176 1.176 0 0 1-1.662-.003 1.173 1.173 0 0 1-.002-1.661l3.269-3.27a1.176 1.176 0 1 1 1.665 1.662z"/>
            <path id="dc" d="M66.38 715.346a1.176 1.176 0 0 1-1.663-1.664l3.27-3.27a1.177 1.177 0 0 1 1.665 1.662z"/>
            <path id="dd"
                  d="M57.555 715.346a1.176 1.176 0 0 1-1.662-.003 1.173 1.173 0 0 1-.002-1.661l3.27-3.27a1.176 1.176 0 1 1 1.665 1.662z"/>
            <path id="de"
                  d="M67.79 722.273a1.177 1.177 0 0 1-1.664-1.664l3.269-3.269a1.174 1.174 0 0 1 1.664 0 1.174 1.174 0 0 1 0 1.661z"/>
            <path id="df" d="M58.963 722.273a1.177 1.177 0 0 1-1.664-1.664l3.27-3.269a1.175 1.175 0 1 1 1.664 1.661z"/>
        </defs>
        <use fill="#e4ffdd" xlink:href="#da" transform="translate(-47 -682)"/>
        <use fill="#e4ffdd" xlink:href="#db" transform="translate(-47 -682)"/>
        <use fill="#e4ffdd" xlink:href="#dc" transform="translate(-47 -682)"/>
        <use fill="#e4ffdd" xlink:href="#dd" transform="translate(-47 -682)"/>
        <use fill="#e4ffdd" xlink:href="#de" transform="translate(-47 -682)"/>
        <use fill="#e4ffdd" xlink:href="#df" transform="translate(-47 -682)"/>
    </symbol>
    <symbol viewBox="-10 -10 60 60" id="snow" xmlns="http://www.w3.org/2000/svg">
        <defs>
            <path id="ea"
                  d="M223.435 708.585h-20.792c-4.779 0-8.667-3.891-8.667-8.67 0-4.653 3.688-8.465 8.296-8.659.513-4.727 4.527-8.418 9.388-8.418 4.02 0 7.552 2.6 8.864 6.291a9.898 9.898 0 0 1 2.911-.438c5.483 0 9.945 4.46 9.945 9.948 0 5.483-4.462 9.946-9.945 9.946zm-20.792-14.333a5.67 5.67 0 0 0-5.663 5.663 5.67 5.67 0 0 0 5.663 5.666h20.792c3.827 0 6.941-3.116 6.941-6.942 0-3.829-3.114-6.943-6.94-6.943-1.145 0-2.235.27-3.244.807l-1.893 1.004-.299-2.122c-.443-3.159-3.169-5.542-6.34-5.542a6.444 6.444 0 0 0-6.438 6.437c.033.255.047.367.055.479l.135 1.892-1.873-.302c-.294-.047-.589-.097-.896-.097z"/>
            <path id="eb" d="M206.919 713.65a2.163 2.163 0 1 1-4.326 0 2.163 2.163 0 0 1 4.326 0z"/>
            <path id="ec" d="M215.84 713.65a2.163 2.163 0 1 1-4.325 0 2.163 2.163 0 0 1 4.326 0z"/>
            <path id="ed" d="M224.763 713.65a2.163 2.163 0 1 1-4.326 0 2.163 2.163 0 0 1 4.326 0z"/>
            <path id="ee" d="M211.38 719.597a2.163 2.163 0 1 1-4.327 0 2.163 2.163 0 0 1 4.326 0z"/>
            <path id="ef" d="M220.301 719.597a2.163 2.163 0 1 1-4.326 0 2.163 2.163 0 0 1 4.326 0z"/>
        </defs>
        <use fill="#e4ffdd" xlink:href="#ea" transform="translate(-194 -682)"/>
        <use fill="#e4ffdd" xlink:href="#eb" transform="translate(-194 -682)"/>
        <use fill="#e4ffdd" xlink:href="#ec" transform="translate(-194 -682)"/>
        <use fill="#e4ffdd" xlink:href="#ed" transform="translate(-194 -682)"/>
        <use fill="#e4ffdd" xlink:href="#ee" transform="translate(-194 -682)"/>
        <use fill="#e4ffdd" xlink:href="#ef" transform="translate(-194 -682)"/>
    </symbol>
    <symbol viewBox="-10 -10 60 60" id="sun" xmlns="http://www.w3.org/2000/svg">
        <defs>
            <path id="fa"
                  d="M296.76 702.297a9.832 9.832 0 0 1-9.833 9.834 9.833 9.833 0 0 1-9.835-9.834c0-5.431 4.402-9.833 9.835-9.833 5.43 0 9.833 4.402 9.833 9.833z"/>
            <path id="fb"
                  d="M288.22 688.925a1.293 1.293 0 1 1-2.59 0v-5.094c0-.716.58-1.294 1.297-1.294.714 0 1.294.578 1.294 1.294z"/>
            <path id="fc"
                  d="M278.385 691.927a1.296 1.296 0 0 1-1.831 1.83l-3.603-3.601a1.3 1.3 0 0 1 0-1.833 1.298 1.298 0 0 1 1.832 0z"/>
            <path id="fd" d="M273.552 701.004a1.295 1.295 0 0 1 0 2.589h-5.094a1.295 1.295 0 0 1 0-2.59z"/>
            <path id="fe"
                  d="M276.554 710.839a1.294 1.294 0 1 1 1.831 1.831l-3.602 3.605a1.296 1.296 0 0 1-1.832-1.834z"/>
            <path id="ff"
                  d="M285.63 715.67a1.296 1.296 0 0 1 2.59 0v5.097c0 .716-.578 1.294-1.296 1.294a1.294 1.294 0 0 1-1.295-1.294z"/>
            <path id="fg"
                  d="M295.464 712.67a1.297 1.297 0 0 1 .001-1.83 1.299 1.299 0 0 1 1.832 0l3.601 3.602a1.293 1.293 0 0 1 0 1.833 1.297 1.297 0 0 1-1.83 0z"/>
            <path id="fh"
                  d="M300.297 703.596a1.294 1.294 0 0 1-1.292-1.297c0-.716.579-1.294 1.293-1.294h5.094a1.296 1.296 0 0 1 .002 2.591z"/>
            <path id="fi"
                  d="M297.298 693.76a1.293 1.293 0 0 1-1.83-.002 1.295 1.295 0 0 1-.003-1.831l3.602-3.601a1.295 1.295 0 1 1 1.834 1.831z"/>
        </defs>
        <use  xlink:href="#fa" transform="translate(-267 -682)"/>
        <use  xlink:href="#fb" transform="translate(-267 -682)"/>
        <use  xlink:href="#fc" transform="translate(-267 -682)"/>
        <use  xlink:href="#fd" transform="translate(-267 -682)"/>
        <use  xlink:href="#fe" transform="translate(-267 -682)"/>
        <use  xlink:href="#ff" transform="translate(-267 -682)"/>
        <use  xlink:href="#fg" transform="translate(-267 -682)"/>
        <use  xlink:href="#fh" transform="translate(-267 -682)"/>
        <use  xlink:href="#fi" transform="translate(-267 -682)"/>
    </symbol>
    <symbol viewBox="-10 -10 61 44" id="wind" xmlns="http://www.w3.org/2000/svg">
        <defs>
            <path id="ga"
                  d="M652.759 713.483a1.173 1.173 0 0 1-1.661-.003 1.174 1.174 0 0 1-.003-1.66l20.12-20.703a1.175 1.175 0 1 1 1.663 1.66z"/>
            <path id="gb"
                  d="M643.933 713.483a1.172 1.172 0 0 1-1.66-.003 1.172 1.172 0 0 1-.003-1.66l20.119-20.703a1.176 1.176 0 0 1 1.664 1.66z"/>
            <path id="gc"
                  d="M635.107 713.483a1.173 1.173 0 0 1-1.66-.003 1.172 1.172 0 0 1-.004-1.66l20.12-20.703a1.176 1.176 0 0 1 1.664 1.66z"/>
        </defs>
        <use  xlink:href="#ga" transform="translate(-633 -690)"/>
        <use  xlink:href="#gb" transform="translate(-633 -690)"/>
        <use  xlink:href="#gc" transform="translate(-633 -690)"/>
    </symbol>
</svg>